nColumns=19
nRows=70
DataType=double
version=3
OpenSimVersion=4.1
endheader
time	ground_force_1_vx	ground_force_1_vy	ground_force_1_vz	ground_force_1_px	ground_force_1_py	ground_force_1_pz	ground_force_1_mx	ground_force_1_my	ground_force_1_mz	ground_force_2_vx	ground_force_2_vy	ground_force_2_vz	ground_force_2_px	ground_force_2_py	ground_force_2_pz	ground_force_2_mx	ground_force_2_my	ground_force_2_mz
3.57	76.5153	586.467	7.52567	0.781567	0	-0.262616	-0	4.25081	-0	0	0	0	-0.0018197	0	-0.000230602	0	0	0
3.58	75.4428	507.83	13.2645	0.764988	0	-0.263615	-0	4.04186	-0	0	0	0	-0.0018197	0	-0.000230604	0	0	0
3.59	69.8985	426.799	17.9198	0.749099	0	-0.263798	-0	3.50507	-0	0	0	0	-0.0018197	0	-0.000230606	0	0	0
3.6	60.7095	345.697	19.7436	0.73457	0	-0.26339	-0	3.03677	-0	0	0	0	-0.0018197	0	-0.000230607	0	0	0
3.61	51.4292	269.037	15.0097	0.72338	0	-0.263261	-0	2.96317	-0	0	0	0	-0.00181971	0	-0.000230608	0	0	0
3.62	44.8853	203.149	6.59823	0.718111	0	-0.2642	-0	3.16505	-0	0	0	0	-0.00181971	0	-0.000230609	0	0	0
3.63	40.4895	152.343	1.74001	0.715231	0	-0.264679	-0	3.07766	-0	0	0	0	-0.00181971	0	-0.000230609	0	0	0
3.64	0	0	0	-0.00181974	0	-0.000230399	0	0	0	0	0	0	-0.00181971	0	-0.000230609	0	0	0
3.65	0	0	0	-0.00181974	0	-0.000230399	0	0	0	0	0	0	-0.00181971	0	-0.000230609	0	0	0
3.66	0	0	0	-0.00181974	0	-0.000230399	0	0	0	0	0	0	-0.00181971	0	-0.000230609	0	0	0
3.67	0	0	0	-0.00181973	0	-0.000230398	0	0	0	0	0	0	-0.00181971	0	-0.000230608	0	0	0
3.68	0	0	0	-0.00181973	0	-0.000230397	0	0	0	0	0	0	-0.0018197	0	-0.000230607	0	0	0
3.69	0	0	0	-0.00181973	0	-0.000230396	0	0	0	21.357	199.173	-10.7374	0.985543	0	-0.348988	-0	0.965255	-0
3.7	0	0	0	-0.00181973	0	-0.000230394	0	0	0	32.9897	385.762	-19.1781	1.03908	0	-0.352752	-0	0.467487	-0
3.71	0	0	0	-0.00181973	0	-0.000230393	0	0	0	16.8783	597.976	-8.79323	1.05645	0	-0.352523	-0	0.07328	-0
3.72	0	0	0	-0.00181973	0	-0.000230391	0	0	0	-19.6666	729.207	8.34345	1.06238	0	-0.352716	-0	0.086999	-0
3.73	0	0	0	-0.00181972	0	-0.000230388	0	0	0	-50.23	773.894	-4.53126	1.06212	0	-0.354385	-0	0.355408	-0
3.74	0	0	0	-0.00181972	0	-0.000230386	0	0	0	-76.0002	800.863	-17.1327	1.05638	0	-0.35712	-0	0.688191	-0
3.75	0	0	0	-0.00181972	0	-0.000230383	0	0	0	-100.081	862.771	10.3909	1.04574	0	-0.359499	-0	0.972335	-0
3.76	0	0	0	-0.00181971	0	-0.00023038	0	0	0	-112.377	955.155	44.4407	1.03197	0	-0.360572	-0	1.02389	-0
3.77	0	0	0	-0.00181971	0	-0.000230377	0	0	0	-106.653	1047.95	48.0566	1.0171	0	-0.360676	-0	0.666888	-0
3.78	0	0	0	-0.00181971	0	-0.000230374	0	0	0	-91.9193	1123.41	41.8264	1.00213	0	-0.360548	0	-0.012326	0
3.79	0	0	0	-0.0018197	0	-0.00023037	0	0	0	-77.3983	1176.86	43.7254	0.987177	0	-0.360658	0	-0.656416	0
3.8	0	0	0	-0.0018197	0	-0.000230366	0	0	0	-65.9796	1206.82	47.9964	0.972246	0	-0.361209	0	-0.921367	0
3.81	0	0	0	-0.00181969	0	-0.000230361	0	0	0	-57.1727	1215.57	54.8375	0.957447	0	-0.36218	0	-0.710504	0
3.82	0	0	0	-0.00181969	0	-0.000230357	0	0	0	-47.6555	1209.99	59.8693	0.942895	0	-0.363368	0	-0.154556	0
3.83	0	0	0	-0.00181968	0	-0.000230352	0	0	0	-36.2581	1194.8	63.5975	0.928672	0	-0.364499	-0	0.538795	-0
3.84	0	0	0	-0.00181968	0	-0.000230347	0	0	0	-22.5087	1171.67	66.5115	0.914846	0	-0.36538	-0	1.18701	-0
3.85	0	0	0	-0.00181967	0	-0.000230342	0	0	0	-8.11383	1138.93	66.0513	0.901412	0	-0.365948	-0	1.67051	-0
3.86	0	0	0	-0.00181966	0	-0.000230336	0	0	0	4.7232	1096.01	63.9206	0.88806	0	-0.366192	-0	1.96707	-0
3.87	0	0	0	-0.00181966	0	-0.000230331	0	0	0	19.294	1047.64	60.3737	0.874145	0	-0.366087	-0	2.16559	-0
3.88	0	0	0	-0.00181965	0	-0.000230324	0	0	0	36.8976	996.053	56.0448	0.859086	0	-0.365638	-0	2.38567	-0
3.89	0	0	0	-0.00181964	0	-0.000230318	0	0	0	55.0619	938.285	47.9602	0.842723	0	-0.364888	-0	2.61357	-0
3.9	0	0	0	-0.00181963	0	-0.000230312	0	0	0	72.2536	872.293	33.7593	0.825294	0	-0.363842	-0	2.62236	-0
3.91	0	0	0	-0.00181963	0	-0.000230305	0	0	0	86.1421	799.566	20.8322	0.807211	0	-0.36245	-0	2.18087	-0
3.92	0	0	0	-0.00181962	0	-0.000230298	0	0	0	94.4537	721.577	14.1074	0.788841	0	-0.360801	-0	1.47646	-0
3.93	0	0	0	-0.00181961	0	-0.000230291	0	0	0	98.0453	638.129	6.6555	0.770405	0	-0.35923	-0	1.19794	-0
3.94	0	0	0	-0.0018196	0	-0.000230283	0	0	0	97.6727	549.222	-4.23596	0.75208	0	-0.358135	-0	1.71582	-0
3.95	0	0	0	-0.00181959	0	-0.000230275	0	0	0	91.619	458.008	-9.65943	0.734185	0	-0.357685	-0	1.89926	-0
3.96	0	0	0	-0.00181958	0	-0.000230267	0	0	0	79.6401	369.105	-6.51787	0.717312	0	-0.357744	0	-0.378203	0
3.97	0	0	0	-0.00181957	0	-0.000230259	0	0	0	64.6809	287.037	-3.4607	0.702938	0	-0.35778	0	-4.64761	0
3.98	0	0	0	-0.00181956	0	-0.000230251	0	0	0	50.7483	215.868	-4.99042	0.69434	0	-0.356524	0	-4.55814	0
3.99	0	0	0	-0.00181955	0	-0.000230242	0	0	0	40.5261	159.132	-6.23691	0.693922	0	-0.352473	-0	6.88828	-0
4	0	0	0	-0.00181954	0	-0.000230233	0	0	0	0	0	0	-0.00181952	0	-0.000230432	0	0	0
4.01	0	0	0	-0.00181953	0	-0.000230224	0	0	0	0	0	0	-0.0018195	0	-0.000230423	0	0	0
4.02	0	0	0	-0.00181952	0	-0.000230214	0	0	0	0	0	0	-0.00181949	0	-0.000230413	0	0	0
4.03	0	0	0	-0.00181951	0	-0.000230205	0	0	0	0	0	0	-0.00181948	0	-0.000230402	0	0	0
4.04	0	0	0	-0.0018195	0	-0.000230195	0	0	0	0	0	0	-0.00181947	0	-0.000230392	0	0	0
4.05	0	0	0	-0.00181949	0	-0.000230185	0	0	0	0	0	0	-0.00181946	0	-0.000230381	0	0	0
4.06	16.1579	266.761	-8.04108	1.03253	0	-0.277416	0	-6.12042	0	0	0	0	-0.00181945	0	-0.00023037	0	0	0
4.07	33.4854	500.183	-2.12979	1.04587	0	-0.275922	-0	25.889	-0	0	0	0	-0.00181944	0	-0.000230359	0	0	0
4.08	21.3855	716.886	27.164	1.05095	0	-0.275296	-0	16.9715	-0	0	0	0	-0.00181942	0	-0.000230347	0	0	0
4.09	-19.1177	813.365	48.1284	1.05441	0	-0.274767	-0	1.58183	-0	0	0	0	-0.00181941	0	-0.000230336	0	0	0
4.1	-64.8072	822.949	26.5711	1.05631	0	-0.27377	0	-3.54295	0	0	0	0	-0.0018194	0	-0.000230324	0	0	0
4.11	-102.108	841.127	-9.443	1.05393	0	-0.271759	0	-1.66933	0	0	0	0	-0.00181938	0	-0.000230311	0	0	0
4.12	-123.023	912.917	-28.6431	1.04485	0	-0.268988	-0	0.222649	-0	0	0	0	-0.00181937	0	-0.000230299	0	0	0
4.13	-126.044	1017.65	-35.0957	1.03067	0	-0.266543	-0	0.292767	-0	0	0	0	-0.00181936	0	-0.000230286	0	0	0
4.14	-116.517	1116.16	-36.4877	1.01514	0	-0.264989	-0	0.042116	-0	0	0	0	-0.00181934	0	-0.000230273	0	0	0
4.15	-101.416	1187.57	-34.8239	1.00034	0	-0.263992	-0	0.44575	-0	0	0	0	-0.00181933	0	-0.00023026	0	0	0
4.16	-86.0467	1228.92	-36.759	0.986436	0	-0.263001	-0	1.10837	-0	0	0	0	-0.00181931	0	-0.000230247	0	0	0
4.17	-73.5088	1243.76	-42.9044	0.973029	0	-0.261667	-0	1.42266	-0	0	0	0	-0.0018193	0	-0.000230234	0	0	0
4.18	-63.7413	1238.12	-50.2864	0.959703	0	-0.259923	-0	1.34817	-0	0	0	0	-0.00181929	0	-0.00023022	0	0	0
4.19	-53.5273	1219.93	-57.425	0.946132	0	-0.257947	-0	1.20572	-0	0	0	0	-0.00181927	0	-0.000230206	0	0	0
4.2	-39.7697	1195.09	-61.2733	0.932156	0	-0.256033	-0	1.21155	-0	0	0	0	-0.00181925	0	-0.000230192	0	0	0
4.21	-22.6694	1164.04	-62.8233	0.917845	0	-0.254427	-0	1.34144	-0	0	0	0	-0.00181924	0	-0.000230177	0	0	0
4.22	-5.69188	1123.67	-63.2283	0.903334	0	-0.253222	-0	1.48286	-0	0	0	0	-0.00181922	0	-0.000230163	0	0	0
4.23	9.8406	1075.18	-61.1307	0.88855	0	-0.252388	-0	1.58506	-0	0	0	0	-0.00181921	0	-0.000230148	0	0	0
4.24	25.9133	1023.74	-54.6038	0.873206	0	-0.251899	-0	1.67629	-0	0	0	0	-0.00181919	0	-0.000230133	0	0	0
4.25	43.2197	971.046	-43.8537	0.857098	0	-0.25181	-0	1.81166	-0	0	0	0	-0.00181917	0	-0.000230118	0	0	0
4.26	60.0407	913.581	-32.0601	0.840312	0	-0.252213	-0	2.03692	-0	0	0	0	-0.00181916	0	-0.000230102	0	0	0
